<?xml version="1.0" encoding="UTF-8"?>
<svg id="Layer_1" xmlns="http://www.w3.org/2000/svg" version="1.1" viewBox="0 0 100 100">
  <!-- Generator: Adobe Illustrator 29.3.1, SVG Export Plug-In . SVG Version: 2.1.0 Build 151)  -->
  <path d="M55.6,79.6h-31v-8h42.4v-9.2c0-4.4,3.6-8,8-8h9.1v-12.8c0-.4,0-.8,0-1.2v-10.6h0,0c0,0-9.4-9.3-9.4-9.3l-8.2-8.1-8.4-8.3-.2-.2v.2H23c-4.3,0-7.8,3.5-7.8,7.8v21.9h-3.1c-4.3,0-7.8,3.5-7.8,7.8v22.2c0,4.3,3.5,7.8,7.8,7.8h3.1v8.5c0,4.3,3.5,7.8,7.8,7.8h36.9l-2-2c-1.7-1.7-2.5-3.9-2.3-6.2ZM35.4,49.3c.5.6,1.5,1.1,2.9,1.7,2.4.9,4.2,1.9,5.3,3.2,1.1,1.3,1.6,2.9,1.6,4.9s-.7,3.8-2.1,5.1-3.2,1.8-5.6,1.8-3.1-.3-4.4-1c-1.3-.7-2.3-1.6-3.1-2.8s-1.1-2.7-1.1-4.3h5c0,1.4.3,2.5.8,3.1.6.6,1.5,1,2.7,1s2.6-.9,2.6-2.8-.3-1.8-.8-2.3c-.5-.5-1.5-1.1-2.8-1.6-2.5-.9-4.3-2-5.4-3.3-1.1-1.3-1.6-2.8-1.6-4.5s.7-3.8,2.2-5,3.4-1.9,5.6-1.9,2.9.3,4.1,1c1.2.6,2.1,1.5,2.8,2.7.6,1.2,1,2.5,1,4h-5c0-1.2-.2-2-.7-2.6-.5-.6-1.2-.9-2.1-.9s-1.6.3-2,.8c-.5.5-.7,1.2-.7,2.1s.3,1.3.8,1.8ZM59.3,65.6h-5.2l-7.1-24.8h5.6l4.2,18,4.2-18h5.6l-7.2,24.8ZM24.6,12.4h33.3v17.4h16.7v4H24.6V12.4ZM18.1,65.9c-2.8,0-5-.9-6.4-2.8-1.5-1.8-2.2-4.5-2.2-7.9v-4.2c0-3.4.8-6,2.3-7.9,1.5-1.8,3.7-2.8,6.4-2.8s4.8.8,6.2,2.3c1.4,1.5,2.2,3.7,2.4,6.5h-5c0-1.7-.3-3-.8-3.6-.5-.7-1.4-1-2.7-1s-2.3.5-2.8,1.4c-.6.9-.9,2.5-.9,4.6v4.7c0,2.5.3,4.2.8,5.1.6.9,1.5,1.4,2.8,1.4s2.2-.3,2.7-1c.5-.6.8-1.8.9-3.5h5c-.1,2.8-.9,5-2.4,6.4-1.5,1.5-3.5,2.2-6.2,2.2Z"/>
  <polygon points="84.2 80 84.2 62.4 84.1 62.4 75 62.4 75 80.1 63.5 80.1 71.2 87.8 79.5 96.1 95.6 79.9 84.2 80"/>
</svg>