<?xml version="1.0" encoding="utf-8"?>
<!-- Generator: Adobe Illustrator 24.1.2, SVG Export Plug-In . SVG Version: 6.00 Build 0)  -->
<svg version="1.1" id="Layer_1" xmlns="http://www.w3.org/2000/svg" xmlns:xlink="http://www.w3.org/1999/xlink" x="0px" y="0px"
	 viewBox="0 0 24 24" style="enable-background:new 0 0 24 24;" xml:space="preserve">
<style type="text/css">
	.st0{fill:none;}
</style>
<path class="st0" d="M0,0h24v24H0V0z"/>
<path d="M22.5,7.5v15h-21v-15H22.5 M23,6H1C0.4,6,0,6.4,0,7v16c0,0.6,0.4,1,1,1h22c0.6,0,1-0.4,1-1V7C24,6.4,23.6,6,23,6L23,6z"/>
<path d="M20.5,21h-7c-0.3,0-0.5-0.2-0.5-0.5v-3c0-0.3,0.2-0.5,0.5-0.5h7c0.3,0,0.5,0.2,0.5,0.5v3C21,20.8,20.8,21,20.5,21z"/>
<g>
	<path d="M16.9,11.7H3.8C3.3,11.7,3,11.4,3,11s0.3-0.8,0.8-0.8h13.1c0.4,0,0.8,0.3,0.8,0.8S17.3,11.7,16.9,11.7z"/>
</g>
</svg>
