<?xml version="1.0" encoding="utf-8"?>
<!-- Generator: Adobe Illustrator 23.1.1, SVG Export Plug-In . SVG Version: 6.00 Build 0)  -->
<svg version="1.1" id="Capa_1" xmlns="http://www.w3.org/2000/svg" xmlns:xlink="http://www.w3.org/1999/xlink" x="0px" y="0px"
	 viewBox="0 0 512 512" style="enable-background:new 0 0 512 512;" xml:space="preserve">
<path d="M330.1,17.5H103.3c-13,0-23.6,10.6-23.6,23.7v429.7c0,13,10.6,23.7,23.7,23.7h298c13,0,23.7-10.6,23.7-23.7V112.3
	L330.1,17.5z M214,282.8c4.7,3.9,5.3,10.9,1.4,15.6c-2.1,2.6-5.3,4-8.5,4c-2.5,0-5-0.8-7.1-2.5l-42.6-35.3c-2.5-2.1-4-5.2-4-8.5
	c0-3.3,1.5-6.4,4-8.5l42.6-35.3c4.7-3.9,11.6-3.3,15.6,1.5c3.9,4.8,3.3,11.6-1.4,15.6L181.7,256L214,282.8z M283.1,189l-40.6,140.2
	c-1.4,4.8-5.8,8-10.6,8c-1,0-2-0.2-3.1-0.5c-5.9-1.7-9.2-7.8-7.5-13.7l40.6-140.2c1.7-5.9,7.8-9.2,13.7-7.5
	C281.5,177,284.9,183.2,283.1,189z M347.2,264.5l-42.6,35.3c-2,1.7-4.6,2.5-7.1,2.5c-3.2,0-6.3-1.4-8.5-4
	c-3.9-4.7-3.3-11.6,1.4-15.6l32.3-26.7l-32.3-26.8c-4.7-3.9-5.3-10.9-1.4-15.6c3.9-4.7,10.9-5.3,15.6-1.5l42.6,35.3
	c2.5,2.1,4,5.2,4,8.5C351.1,259.3,349.7,262.4,347.2,264.5z M321.3,127.2c-4.2,0-7.5-3.4-7.5-7.5V47.4l79.8,79.8H321.3z"/>
</svg>
