<?xml version="1.0" encoding="utf-8"?>
<!-- Generator: Adobe Illustrator 23.1.1, SVG Export Plug-In . SVG Version: 6.00 Build 0)  -->
<svg version="1.1" id="Capa_1" xmlns="http://www.w3.org/2000/svg" xmlns:xlink="http://www.w3.org/1999/xlink" x="0px" y="0px"
	 viewBox="0 0 512 512" style="enable-background:new 0 0 512 512;" xml:space="preserve">
<g>
	<g id="drive-pdf">
		<path d="M239.6,169.8L239.6,169.8C242.2,169.8,242.2,169.8,239.6,169.8c2.6-10.2,5.1-15.3,5.1-22.9v-5.1c2.6-12.8,2.6-22.9,0-25.5
			c0,0,0,0,0-2.6l-2.6-2.6l0,0l0,0c0,0,0,2.6-2.6,2.6C234.6,129,234.6,146.9,239.6,169.8L239.6,169.8z M163.1,345.8
			c-5.1,2.5-10.2,5.1-12.8,7.6c-17.9,15.3-30.6,33.1-33.2,40.8l0,0l0,0l0,0C132.6,391.6,147.9,376.4,163.1,345.8
			C165.7,345.8,165.7,345.8,163.1,345.8C165.7,345.8,163.1,345.8,163.1,345.8z M397.8,307.5c-2.5-2.5-12.8-10.2-48.5-10.2
			c-2.5,0-2.5,0-5.1,0l0,0c0,0,0,0,0,2.5c17.9,7.6,35.7,12.8,48.5,12.8c2.5,0,2.5,0,5.1,0l0,0h2.5c0,0,0,0,0-2.5l0,0
			C400.3,310,397.8,310,397.8,307.5z M436,27H79c-28,0-51,23-51,51v357c0,28,23,51,51,51h357c28,0,51-23,51-51V78
			C487,50,464,27,436,27z M408,327.9c-5.1,2.5-12.8,5.1-23,5.1c-20.4,0-51-5.1-76.5-17.9c-43.4,5.1-76.5,10.2-102,20.4
			c-2.6,0-2.6,0-5.1,2.5c-30.6,53.6-56.1,79.1-76.5,79.1c-5.1,0-7.7,0-10.2-2.6l-12.8-7.6v-2.5c-2.6-5.1-2.6-7.6-2.6-12.8
			c2.6-12.8,17.8-35.7,48.4-53.6c5.1-2.5,12.8-7.6,22.9-12.8c7.6-12.8,15.3-28,25.5-45.9c12.8-25.5,20.4-51,28.1-74l0,0
			c-10.2-30.6-15.3-48.4-5.1-84.2c2.6-10.2,10.2-20.4,20.4-20.4h5.1c5.1,0,10.2,2.6,15.3,5.1c17.9,17.8,10.2,58.7,0,91.8
			c0,2.6,0,2.6,0,2.6c10.2,28.1,25.5,51,40.8,66.3c7.6,5.1,12.8,10.2,23,15.3c12.8,0,23-2.5,33.1-2.5c30.6,0,51,5.1,58.6,17.9
			c2.6,5.1,2.6,10.2,2.6,15.3C415.6,315.1,413,322.8,408,327.9z M242.2,228.4c-5.1,17.9-15.3,38.3-25.5,61.2
			c-5.1,10.2-10.2,17.9-15.3,28h2.6h2.6l0,0c33.1-12.8,63.8-20.4,84.1-23c-5.1-2.5-7.6-5.1-10.2-7.6
			C267.7,271.8,252.4,251.4,242.2,228.4z"/>
	</g>
</g>
</svg>
