<?xml version="1.0" encoding="utf-8"?>
<!-- Generator: Adobe Illustrator 24.1.2, SVG Export Plug-In . SVG Version: 6.00 Build 0)  -->
<svg version="1.1" id="Layer_1" xmlns="http://www.w3.org/2000/svg" xmlns:xlink="http://www.w3.org/1999/xlink" x="0px" y="0px"
	 viewBox="0 0 24 24" style="enable-background:new 0 0 24 24;" xml:space="preserve">
<style type="text/css">
	.st0{fill:none;}
</style>
<path class="st0" d="M0,0h24v24H0V0z"/>
<path d="M2.2,23.8h14.2c1.2,0,2.2-1,2.2-2.2v-4.4h-2.2v4.4H2.2V6.4h14.2v4.4h2.2V6.4c0-1.2-1-2.2-2.2-2.2H2.2C1,4.2,0,5.2,0,6.4
	v15.3C0,22.8,1,23.8,2.2,23.8z"/>
<polygon points="19.6,18.4 24,14 19.6,9.6 19.6,12.9 8.7,12.9 8.7,15.1 19.6,15.1 "/>
</svg>
